<svg xmlns="http://www.w3.org/2000/svg" viewBox="0 0 100 100">
  <rect width="100" height="100" rx="22" fill="#1A2432" />

  <path d="M 22 100 C 22 75 78 75 78 100 Z" fill="#F0F4F8" />

  <rect x="40" y="92" width="20" height="6" rx="3" fill="#111822" />

  <path d="M 12 50 L 20 16 Q 22 9 28 15 L 42 35 Z" fill="#F0F4F8" stroke="#F0F4F8" stroke-width="4" stroke-linecap="round" stroke-linejoin="round" />
  <path d="M 88 50 L 80 16 Q 78 9 72 15 L 58 35 Z" fill="#F0F4F8" stroke="#F0F4F8" stroke-width="4" stroke-linecap="round" stroke-linejoin="round" />

  <path d="M 19 44 L 24 22 Q 25 17 28 21 L 36 34 Z" fill="#D68B3A" />
  <path d="M 81 44 L 76 22 Q 75 17 72 21 L 64 34 Z" fill="#D68B3A" />

  <circle cx="50" cy="56" r="38" fill="#F0F4F8" />

  <ellipse cx="50" cy="61" rx="29" ry="28" fill="#D68B3A" />

  <ellipse cx="36" cy="63" rx="5" ry="6.5" fill="#111822" />
  <ellipse cx="64" cy="63" rx="5" ry="6.5" fill="#111822" />

  <ellipse cx="35" cy="61" rx="1.5" ry="2.5" fill="#F0F4F8" />
  <ellipse cx="63" cy="61" rx="1.5" ry="2.5" fill="#F0F4F8" />

  <ellipse cx="50" cy="74" rx="4.5" ry="2.5" fill="#111822" />
</svg>
